:FULLY-SPECIFIED
:FORCE-ALL-JOINTS-BE-3DOF
:DEGREES
68
root 7.48124 16.9479 -27.2847 5.17314 8.80241 -5.2141
lfemur -30.965 -3.50021 -14.5818
ltibia 43.559 0 0
lfoot -21.4674 0.521335 0
ltoes 17.3341 0 0
rfemur -28.3698 -5.84059 13.8149
rtibia 66.6956 0 0
rfoot 8.0401 12.541 0
rtoes -11.4283 0 0
lowerback 0.426778 3.1805 -0.394167
upperback -1.90642 4.29403 3.72007
thorax -2.39733 2.1926 4.02638
lowerneck -10.0331 -5.06944 1.6578
upperneck -1.63696 -6.86454 0.0152995
head 1.09048 -3.44318 -0.559086
lclavicle 1.78185e-15 -7.90359e-15 0
lhumerus -43.9586 -2.77021 91.7686
lradius 43.9828 0 0
lwrist 10.7019 0 0
lhand -2.23521 5.48405 0
lfingers 7.12502 0 0
lthumb 23.6408 35.5328 0
rclavicle 1.78185e-15 -7.90359e-15 0
rhumerus -48.7226 -0.704555 -84.9198
rradius 47.1614 0 0
rwrist 3.97978 0 0
rhand -20.2721 -10.9565 0
rfingers 7.12502 0 0
rthumb 6.07785 12.867 0
69
root 7.48445 16.9409 -27.2664 5.13576 8.89088 -5.19117
lfemur -30.9195 -3.55843 -14.4507
ltibia 43.4832 0 0
lfoot -21.3262 0.419776 0
ltoes 17.2096 0 0
rfemur -28.4854 -5.97086 13.6463
rtibia 66.9849 0 0
rfoot 8.34163 12.8354 0
rtoes -11.5012 0 0
lowerback 0.437605 3.15305 -0.339061
upperback -1.89123 4.25704 3.67193
thorax -2.38141 2.17245 3.94464
lowerneck -10.0432 -5.07704 1.67663
upperneck -1.61646 -6.87874 0.0466056
head 1.09934 -3.44893 -0.553256
lclavicle 1.95697e-15 -7.65134e-15 0
lhumerus -44.0498 -2.86839 91.7772
lradius 44.1396 0 0
lwrist 10.8779 0 0
lhand -1.95109 5.55019 0
lfingers 7.12502 0 0
lthumb 23.9083 35.5239 0
rclavicle 1.95697e-15 -7.65134e-15 0
rhumerus -48.5912 -0.667978 -84.5967
rradius 47.284 0 0
rwrist 3.77793 0 0
rhand -20.1876 -10.9648 0
rfingers 7.12502 0 0
rthumb 6.15945 11.6677 0
70
root 7.4873 16.9339 -27.248 5.09909 8.97691 -5.1672
lfemur -30.8698 -3.61559 -14.3196
ltibia 43.4039 0 0
lfoot -21.1886 0.317885 0
ltoes 17.0903 0 0
rfemur -28.5997 -6.10099 13.4772
rtibia 67.2684 0 0
rfoot 8.63491 13.1264 0
rtoes -11.5643 0 0
lowerback 0.447777 3.12536 -0.284686
upperback -1.87608 4.21977 3.62302
thorax -2.36526 2.15217 3.86252
lowerneck -10.0535 -5.08387 1.69583
upperneck -1.59558 -6.892 0.0778128
head 1.10834 -3.45419 -0.547479
lclavicle 2.12859e-15 -7.40499e-15 0
lhumerus -44.1415 -2.97059 91.7887
lradius 44.2955 0 0
lwrist 11.0537 0 0
lhand -1.66565 5.61863 0
lfingers 7.12502 0 0
lthumb 24.1769 35.516 0
rclavicle 2.12859e-15 -7.40499e-15 0
rhumerus -48.456 -0.632239 -84.2688
rradius 47.4062 0 0
rwrist 3.57514 0 0
rhand -20.103 -10.9769 0
rfingers 7.12502 0 0
rthumb 6.2411 10.4299 0
71
root 7.4898 16.9266 -27.2297 5.06316 9.06049 -5.14223
lfemur -30.8162 -3.67167 -14.1884
ltibia 43.3211 0 0
lfoot -21.0547 0.215712 0
ltoes 16.9763 0 0
rfemur -28.7128 -6.23096 13.3076
rtibia 67.5459 0 0
rfoot 8.91992 13.414 0
rtoes -11.6179 0 0
lowerback 0.457299 3.09746 -0.231056
upperback -1.86097 4.18221 3.57339
thorax -2.34888 2.13176 3.78006
lowerneck -10.0638 -5.08993 1.71537
upperneck -1.57435 -6.90431 0.108909
head 1.11749 -3.45897 -0.541757
lclavicle 2.2967e-15 -7.16456e-15 0
lhumerus -44.2337 -3.07672 91.8028
lradius 44.4505 0 0
lwrist 11.2291 0 0
lhand -1.37904 5.68931 0
lfingers 7.12502 0 0
lthumb 24.4464 35.5091 0
rclavicle 2.2967e-15 -7.16456e-15 0
rhumerus -48.3174 -0.59734 -83.9363
rradius 47.5279 0 0
rwrist 3.3715 0 0
rhand -20.0183 -10.9929 0
rfingers 7.12502 0 0
rthumb 6.32277 9.15482 0
72
root 7.49194 16.9193 -27.2114 5.02797 9.14163 -5.11628
lfemur -30.7586 -3.72666 -14.0572
ltibia 43.2349 0 0
lfoot -20.9243 0.113306 0
ltoes 16.8675 0 0
rfemur -28.8245 -6.36068 13.1377
rtibia 67.8174 0 0
rfoot 9.19666 13.6981 0
rtoes -11.662 0 0
lowerback 0.466175 3.06936 -0.178185
upperback -1.84591 4.14441 3.52306
thorax -2.33228 2.11125 3.6973
lowerneck -10.0742 -5.09523 1.73525
upperneck -1.55276 -6.91567 0.139881
head 1.12678 -3.46327 -0.536092
lclavicle 2.46127e-15 -6.93008e-15 0
lhumerus -44.3265 -3.18667 91.8196
lradius 44.6045 0 0
lwrist 11.4041 0 0
lhand -1.09139 5.76218 0
lfingers 7.12502 0 0
lthumb 24.7169 35.5033 0
rclavicle 2.46127e-15 -6.93008e-15 0
rhumerus -48.1753 -0.563286 -83.5994
rradius 47.649 0 0
rwrist 3.16712 0 0
rhand -19.9337 -11.0126 0
rfingers 7.12502 0 0
rthumb 6.40442 7.84348 0
73
root 7.49374 16.9118 -27.1932 4.99352 9.22032 -5.08937
lfemur -30.6971 -3.78056 -13.9261
ltibia 43.1453 0 0
lfoot -20.7976 0.0107187 0
ltoes 16.764 0 0
rfemur -28.9349 -6.49012 12.9675
rtibia 68.0829 0 0
rfoot 9.46512 13.9786 0
rtoes -11.6967 0 0
lowerback 0.474411 3.04107 -0.126086
upperback -1.83089 4.10637 3.47207
thorax -2.31548 2.09064 3.61429
lowerneck -10.0847 -5.09978 1.75545
upperneck -1.53084 -6.92611 0.170717
head 1.1362 -3.46709 -0.530485
lclavicle 2.62226e-15 -6.70158e-15 0
lhumerus -44.4196 -3.30034 91.839
lradius 44.7575 0 0
lwrist 11.5786 0 0
lhand -0.802863 5.83716 0
lfingers 7.12502 0 0
lthumb 24.988 35.4984 0
rclavicle 2.62226e-15 -6.70158e-15 0
rhumerus -48.0299 -0.530079 -83.2584
rradius 47.7696 0 0
rwrist 2.96211 0 0
rhand -19.8492 -11.0361 0
rfingers 7.12502 0 0
rthumb 6.48601 6.49702 0
74
root 7.4952 16.9043 -27.175 4.95981 9.29656 -5.06153
lfemur -30.6318 -3.83335 -13.7951
ltibia 43.0526 0 0
lfoot -20.6745 -0.0920008 0
ltoes 16.6656 0 0
rfemur -29.0439 -6.61921 12.797
rtibia 68.3424 0 0
rfoot 9.72528 14.2555 0
rtoes -11.7222 0 0
lowerback 0.482011 3.01261 -0.0747726
upperback -1.81593 4.06812 3.42045
thorax -2.29849 2.06994 3.53106
lowerneck -10.0953 -5.1036 1.77596
upperneck -1.5086 -6.93563 0.201404
head 1.14574 -3.47045 -0.524938
lclavicle 2.77966e-15 -6.47907e-15 0
lhumerus -44.5131 -3.41762 91.861
lradius 44.9094 0 0
lwrist 11.7525 0 0
lhand -0.513599 5.91419 0
lfingers 7.12502 0 0
lthumb 25.2597 35.4945 0
rclavicle 2.77966e-15 -6.47907e-15 0
rhumerus -47.8813 -0.497726 -82.9133
rradius 47.8895 0 0
rwrist 2.75657 0 0
rhand -19.7648 -11.0631 0
rfingers 7.12502 0 0
rthumb 6.5675 5.11654 0
75
root 7.49632 16.8966 -27.1568 4.92686 9.37034 -5.03279
lfemur -30.5628 -3.88503 -13.6644
ltibia 42.9567 0 0
lfoot -20.5551 -0.194802 0
ltoes 16.5724 0 0
rfemur -29.1514 -6.74789 12.6265
rtibia 68.5958 0 0
rfoot 9.97712 14.5287 0
rtoes -11.7385 0 0
lowerback 0.488981 2.984 -0.0242587
upperback -1.80103 4.02967 3.36823
thorax -2.2813 2.04917 3.44766
lowerneck -10.1059 -5.10668 1.79677
upperneck -1.48607 -6.94423 0.23193
head 1.1554 -3.47334 -0.519453
lclavicle 2.93344e-15 -6.26259e-15 0
lhumerus -44.6069 -3.53842 91.8855
lradius 45.0601 0 0
lwrist 11.9258 0 0
lhand -0.223746 5.99321 0
lfingers 7.12502 0 0
lthumb 25.5319 35.4916 0
rclavicle 2.93344e-15 -6.26259e-15 0
rhumerus -47.7296 -0.466228 -82.5646
rradius 48.0088 0 0
rwrist 2.5506 0 0
rhand -19.6805 -11.0938 0
rfingers 7.12502 0 0
rthumb 6.64886 3.70314 0
